<svg xmlns="http://www.w3.org/2000/svg" viewBox="0 0 111.77 173.51"><defs><style>.cls-1{fill:#fff;stroke:#000;stroke-miterlimit:10;}</style></defs><title>Asset 1</title><g id="Layer_2" data-name="Layer 2"><g id="Layer_3" data-name="Layer 3"><path class="cls-1" d="M106.7,98.14c-5.87-14.68-17.62-13.21-17.62-13.21L92,95.21a40.67,40.67,0,0,0-5.87-10.28c-4.41-5.87-14.68-5.87-14.68-5.87V92.27L67.06,77.59a29.93,29.93,0,0,0-13.21-2.94c-1.47,0-4.4,1.47-4.4,1.47l2.38,14.27C48,77.64,34.69,39.19,33.3,35a43.2,43.2,0,0,0-4.41-8.81H27.43C20.09,26.21,18.62,38,18.62,38s1.63,6.53,3.86,15.55c4.46,18.06,11.31,46.11,12.29,52,1.46,8.81-5.88,22-10.28,11.75s0-20.56-4.4-23.49S9.81,87.87,6.87,89.33s-2.93,25,0,42.58S45,173,45,173H93.49c20.55-20.55,17.61-54.32,17.61-54.32S112.57,112.82,106.7,98.14Z"/><path class="cls-1" d="M13.75,45.11a23.75,23.75,0,0,1,3.09-2.64,19.83,19.83,0,1,1,21.29-4.61c1.5.14,2.95.36,4.35.62a23.5,23.5,0,1,0-28.73,6.63Z"/></g></g></svg>